<?xml version="1.0" encoding="UTF-8"?>
<svg id="Layer_2" data-name="Layer 2" xmlns="http://www.w3.org/2000/svg" viewBox="0 0 466.94 417.67">
  <defs>
    <style>
      .cls-1 {
        fill: #0075c2;
      }

      .cls-2 {
        fill: #004068;
      }
    </style>
  </defs>
  <g id="GarminStatsLogo">
    <g id="GarminTriangle">
      <path id="TriangleTop" class="cls-1" d="M107.56,173.17c-.66-.18-1.51-1.49-.82-2.3,3.18-6.57,7.65-12.49,11.24-18.78,18.29-32.04,36.31-64.46,55.06-96.44,9.41-16.05,20.84-39.56,37.12-49.13,4.93-2.9,20.72-7.29,26.23-6.41,33.29,5.32,42.68,32.13,57.4,58.09,6.76,11.91,14.39,23.42,20.14,35.86l-78.15,131.59c-2.95,3.42-8.06,3.75-12.15,2.46l-77.68-46.82c-6.49-3.27-18.5-8.11-25.64-8.11-2.93,0-10.62.59-12.75,0h0Z"/>
      <path id="TriangleRight" class="cls-1" d="M280.06,417.67c-.41-.12-1.31-1.49-1.86-1.87-.02-2.12,8.55-2.43,10.52-2.97,12.7-3.46,19.22-11.49,26.08-21.92,29.37-44.68,53.51-96.09,83.51-139.99,1.77-2.59,3.02-5.82,5.45-2.71,3.61,4.62,8.77,14.08,11.97,19.53,8.88,15.16,16.9,31.08,25.66,46.34,14.44,25.17,36.56,48.51,19.17,78.58-4.94,8.54-21.65,25-32,25h-148.5Z"/>
      <path id="TriangleBottom" class="cls-1" d="M104.56,417.67l-1.02-1.74,30.17-50.86c2.92-4.71,7.47-7.47,13.03-5.34,25.98,14.25,51.46,33.43,77.68,46.82,1.9.97,4.68,2.45,6.52,3.23,2.36,1,14.25,3.62,14.22,6.01-.45.37-1.63,1.87-1.85,1.87H104.56h0Z"/>
    </g>
    <path id="ChartArrow" class="cls-2" d="M127.44,308.17l-63.88,107.87c-15.52,0-27.74,2.42-41.64-5.75-19.13-11.25-27.55-39.56-17.9-59.41,3.45-7.11,9.22-14.97,13.3-21.95,18.96-32.45,38.63-64.9,58.25-97,10.16-16.62,18.86-40.86,43.8-27.08,11.75,6.49,23.91,15.21,35.59,22.16,29.44,17.55,58.94,34.99,88.37,52.55l104.31-173.13v-1.53c-8.45-4.37-16.13-10.93-15.92-21.33.26-12.95,21.9-20.35,31.6-25.9,24.06-13.78,48.55-29.93,74.43-39.56,12.6-1.93,18.13,6.77,18.97,18.15,1.42,19.44-1.26,39.87-1.6,59.28-.25,14.31,2.1,29.95.01,44.19-2.74,18.62-21.16,19.42-33.44,8.75l-1.36.7c-9.51,14.71-17.64,30.29-26.8,45.21-34.59,56.35-68.61,113.32-103.21,169.79-6.85,11.18-11.12,23.96-27.43,22.64-8.96-.73-25.5-13.03-33.82-17.93-34.12-20.13-67.63-40.47-101.64-60.72h0Z"/>
  </g>
</svg>